<mxfile host="app.diagrams.net" modified="2024-04-09T06:30:57.584Z" agent="Mozilla/5.0 (Windows NT 10.0; Win64; x64) AppleWebKit/537.36 (KHTML, like Gecko) Chrome/123.0.0.0 Safari/537.36" etag="nddMNqVZTBR6mdTDsFHx" version="24.2.3" type="github">
  <diagram name="Page-1" id="97916047-d0de-89f5-080d-49f4d83e522f">
    <mxGraphModel dx="4251.5" dy="1363" grid="1" gridSize="10" guides="1" tooltips="1" connect="1" arrows="1" fold="1" page="1" pageScale="1.5" pageWidth="1169" pageHeight="827" background="none" math="0" shadow="0">
      <root>
        <mxCell id="0" />
        <mxCell id="1" parent="0" />
        <mxCell id="qeOynyPtP3sAQbr9AlGW-97" style="edgeStyle=orthogonalEdgeStyle;rounded=0;orthogonalLoop=1;jettySize=auto;html=1;exitX=0.5;exitY=1;exitDx=0;exitDy=0;" edge="1" parent="1" source="2" target="4">
          <mxGeometry relative="1" as="geometry" />
        </mxCell>
        <mxCell id="qeOynyPtP3sAQbr9AlGW-98" style="edgeStyle=orthogonalEdgeStyle;rounded=0;orthogonalLoop=1;jettySize=auto;html=1;exitX=0.5;exitY=1;exitDx=0;exitDy=0;entryX=0.5;entryY=0;entryDx=0;entryDy=0;" edge="1" parent="1" source="2" target="6">
          <mxGeometry relative="1" as="geometry" />
        </mxCell>
        <mxCell id="qeOynyPtP3sAQbr9AlGW-105" style="edgeStyle=orthogonalEdgeStyle;rounded=0;orthogonalLoop=1;jettySize=auto;html=1;exitX=0.5;exitY=1;exitDx=0;exitDy=0;entryX=0.5;entryY=0;entryDx=0;entryDy=0;" edge="1" parent="1" source="2" target="10">
          <mxGeometry relative="1" as="geometry" />
        </mxCell>
        <mxCell id="2" value="Website&#xa;" style="rounded=1;fillColor=#10739E;strokeColor=none;shadow=1;gradientColor=none;fontStyle=1;fontColor=#FF00FF;fontSize=14;" parent="1" vertex="1">
          <mxGeometry x="660" y="15.5" width="200" height="84.5" as="geometry" />
        </mxCell>
        <mxCell id="qeOynyPtP3sAQbr9AlGW-92" style="edgeStyle=orthogonalEdgeStyle;rounded=0;orthogonalLoop=1;jettySize=auto;html=1;exitX=0;exitY=0.5;exitDx=0;exitDy=0;entryX=0;entryY=0.5;entryDx=0;entryDy=0;" edge="1" parent="1" source="4" target="13">
          <mxGeometry relative="1" as="geometry" />
        </mxCell>
        <mxCell id="qeOynyPtP3sAQbr9AlGW-93" style="edgeStyle=orthogonalEdgeStyle;rounded=0;orthogonalLoop=1;jettySize=auto;html=1;exitX=0;exitY=0.5;exitDx=0;exitDy=0;entryX=0;entryY=0.5;entryDx=0;entryDy=0;" edge="1" parent="1" source="4" target="19">
          <mxGeometry relative="1" as="geometry" />
        </mxCell>
        <mxCell id="qeOynyPtP3sAQbr9AlGW-94" style="edgeStyle=orthogonalEdgeStyle;rounded=0;orthogonalLoop=1;jettySize=auto;html=1;exitX=0;exitY=0.5;exitDx=0;exitDy=0;entryX=0;entryY=0.5;entryDx=0;entryDy=0;" edge="1" parent="1" source="4" target="21">
          <mxGeometry relative="1" as="geometry" />
        </mxCell>
        <mxCell id="qeOynyPtP3sAQbr9AlGW-95" style="edgeStyle=orthogonalEdgeStyle;rounded=0;orthogonalLoop=1;jettySize=auto;html=1;exitX=0;exitY=0.5;exitDx=0;exitDy=0;entryX=0;entryY=0.5;entryDx=0;entryDy=0;" edge="1" parent="1" source="4" target="9">
          <mxGeometry relative="1" as="geometry" />
        </mxCell>
        <mxCell id="qeOynyPtP3sAQbr9AlGW-96" style="edgeStyle=orthogonalEdgeStyle;rounded=0;orthogonalLoop=1;jettySize=auto;html=1;exitX=0;exitY=0.5;exitDx=0;exitDy=0;entryX=0;entryY=0.5;entryDx=0;entryDy=0;" edge="1" parent="1" source="4" target="20">
          <mxGeometry relative="1" as="geometry" />
        </mxCell>
        <mxCell id="qeOynyPtP3sAQbr9AlGW-102" style="edgeStyle=orthogonalEdgeStyle;rounded=0;orthogonalLoop=1;jettySize=auto;html=1;exitX=0;exitY=0.5;exitDx=0;exitDy=0;entryX=0;entryY=0.5;entryDx=0;entryDy=0;" edge="1" parent="1" source="4" target="15">
          <mxGeometry relative="1" as="geometry" />
        </mxCell>
        <mxCell id="qeOynyPtP3sAQbr9AlGW-104" style="edgeStyle=orthogonalEdgeStyle;rounded=0;orthogonalLoop=1;jettySize=auto;html=1;exitX=0;exitY=0.5;exitDx=0;exitDy=0;entryX=0;entryY=0.5;entryDx=0;entryDy=0;" edge="1" parent="1" source="4" target="8">
          <mxGeometry relative="1" as="geometry" />
        </mxCell>
        <mxCell id="4" value="Customer&#xa;" style="rounded=1;fillColor=#10739E;strokeColor=none;shadow=1;gradientColor=none;fontStyle=1;fontColor=#80FF00;fontSize=14;labelBackgroundColor=none;" parent="1" vertex="1">
          <mxGeometry x="540" y="190" width="180" height="60" as="geometry" />
        </mxCell>
        <mxCell id="qeOynyPtP3sAQbr9AlGW-99" style="edgeStyle=orthogonalEdgeStyle;rounded=0;orthogonalLoop=1;jettySize=auto;html=1;exitX=0.5;exitY=1;exitDx=0;exitDy=0;entryX=0.5;entryY=0;entryDx=0;entryDy=0;" edge="1" parent="1" source="6" target="18">
          <mxGeometry relative="1" as="geometry" />
        </mxCell>
        <mxCell id="qeOynyPtP3sAQbr9AlGW-100" style="edgeStyle=orthogonalEdgeStyle;rounded=0;orthogonalLoop=1;jettySize=auto;html=1;exitX=0.5;exitY=1;exitDx=0;exitDy=0;entryX=0.5;entryY=0;entryDx=0;entryDy=0;" edge="1" parent="1" source="6" target="27">
          <mxGeometry relative="1" as="geometry" />
        </mxCell>
        <mxCell id="6" value="Admin&#xa;" style="rounded=1;fillColor=#10739E;strokeColor=none;shadow=1;gradientColor=none;fontStyle=1;fontColor=#80FF00;fontSize=14;" parent="1" vertex="1">
          <mxGeometry x="800" y="190" width="200" height="60" as="geometry" />
        </mxCell>
        <mxCell id="8" value="Giỏ Hàng, Đặt Hàng" style="rounded=1;fillColor=#10739E;strokeColor=none;shadow=1;gradientColor=none;fontStyle=1;fontColor=#FF8000;fontSize=14;" parent="1" vertex="1">
          <mxGeometry x="360" y="920" width="200" height="60" as="geometry" />
        </mxCell>
        <mxCell id="9" value="Đăng Ký&#xa;" style="rounded=1;fillColor=#10739E;strokeColor=none;shadow=1;gradientColor=none;fontStyle=1;fontColor=#FF8000;fontSize=14;" parent="1" vertex="1">
          <mxGeometry x="360" y="670" width="200" height="60" as="geometry" />
        </mxCell>
        <mxCell id="qeOynyPtP3sAQbr9AlGW-106" style="edgeStyle=orthogonalEdgeStyle;rounded=0;orthogonalLoop=1;jettySize=auto;html=1;exitX=0;exitY=0.5;exitDx=0;exitDy=0;entryX=0;entryY=0.5;entryDx=0;entryDy=0;" edge="1" parent="1" source="10" target="22">
          <mxGeometry relative="1" as="geometry" />
        </mxCell>
        <mxCell id="qeOynyPtP3sAQbr9AlGW-107" style="edgeStyle=orthogonalEdgeStyle;rounded=0;orthogonalLoop=1;jettySize=auto;html=1;exitX=0;exitY=0.5;exitDx=0;exitDy=0;entryX=0;entryY=0.5;entryDx=0;entryDy=0;" edge="1" parent="1" source="10" target="16">
          <mxGeometry relative="1" as="geometry" />
        </mxCell>
        <mxCell id="qeOynyPtP3sAQbr9AlGW-108" style="edgeStyle=orthogonalEdgeStyle;rounded=0;orthogonalLoop=1;jettySize=auto;html=1;exitX=0;exitY=0.5;exitDx=0;exitDy=0;entryX=0;entryY=0.5;entryDx=0;entryDy=0;" edge="1" parent="1" source="10" target="14">
          <mxGeometry relative="1" as="geometry" />
        </mxCell>
        <mxCell id="qeOynyPtP3sAQbr9AlGW-109" style="edgeStyle=orthogonalEdgeStyle;rounded=0;orthogonalLoop=1;jettySize=auto;html=1;exitX=0;exitY=0.5;exitDx=0;exitDy=0;entryX=0;entryY=0.5;entryDx=0;entryDy=0;" edge="1" parent="1" source="10" target="12">
          <mxGeometry relative="1" as="geometry" />
        </mxCell>
        <mxCell id="10" value="Shop Owner" style="rounded=1;fillColor=#10739E;strokeColor=none;shadow=1;gradientColor=none;fontStyle=1;fontColor=#80FF00;fontSize=14;" parent="1" vertex="1">
          <mxGeometry x="110" y="190" width="200" height="60" as="geometry" />
        </mxCell>
        <mxCell id="12" value="Tạo Sự Kiện, Mã Giảm Giá" style="rounded=1;fillColor=#10739E;strokeColor=none;shadow=1;gradientColor=none;fontStyle=1;fontColor=#FFFFFF;fontSize=14;" parent="1" vertex="1">
          <mxGeometry x="-80" y="510" width="200" height="60" as="geometry" />
        </mxCell>
        <mxCell id="13" value="Tìm Kiếm Sản Phẩm&#xa;" style="rounded=1;fillColor=#10739E;strokeColor=none;shadow=1;gradientColor=none;fontStyle=1;fontColor=#FF8000;fontSize=14;" parent="1" vertex="1">
          <mxGeometry x="360" y="440" width="200" height="60" as="geometry" />
        </mxCell>
        <mxCell id="14" value="Quản Lý Thông Tin Cửa Hàng" style="rounded=1;fillColor=#10739E;strokeColor=none;shadow=1;gradientColor=none;fontStyle=1;fontColor=#FFFFFF;fontSize=14;" parent="1" vertex="1">
          <mxGeometry x="-80" y="440" width="200" height="60" as="geometry" />
        </mxCell>
        <mxCell id="15" value="Xem Sản Phẩm,Đơn Hàng&#xa;" style="rounded=1;fillColor=#10739E;strokeColor=none;shadow=1;gradientColor=none;fontStyle=1;fontColor=#FF8000;fontSize=14;" parent="1" vertex="1">
          <mxGeometry x="360" y="840" width="200" height="60" as="geometry" />
        </mxCell>
        <mxCell id="16" value="Quản Lý Sản Phẩm" style="rounded=1;fillColor=#10739E;strokeColor=none;shadow=1;gradientColor=none;fontStyle=1;fontColor=#FFFFFF;fontSize=14;" parent="1" vertex="1">
          <mxGeometry x="-80" y="360" width="200" height="60" as="geometry" />
        </mxCell>
        <mxCell id="18" value="Quản Lý Người Bán&#xa;" style="rounded=1;fillColor=#10739E;strokeColor=none;shadow=1;gradientColor=none;fontStyle=1;fontColor=#FF8000;fontSize=14;" parent="1" vertex="1">
          <mxGeometry x="876.5" y="340" width="200" height="60" as="geometry" />
        </mxCell>
        <mxCell id="19" value="Đặt Hàng" style="rounded=1;fillColor=#10739E;strokeColor=none;shadow=1;gradientColor=none;fontStyle=1;fontColor=#FF8000;fontSize=14;" parent="1" vertex="1">
          <mxGeometry x="360" y="510" width="200" height="60" as="geometry" />
        </mxCell>
        <mxCell id="20" value="Chat Với Cửa Hàng&#xa;" style="rounded=1;fillColor=#10739E;strokeColor=none;shadow=1;gradientColor=none;fontStyle=1;fontColor=#FF8000;fontSize=14;" parent="1" vertex="1">
          <mxGeometry x="360" y="750" width="200" height="60" as="geometry" />
        </mxCell>
        <mxCell id="21" value="Đăng Nhập&#xa;" style="rounded=1;fillColor=#10739E;strokeColor=none;shadow=1;gradientColor=none;fontStyle=1;fontColor=#FF8000;fontSize=14;" parent="1" vertex="1">
          <mxGeometry x="360" y="580" width="200" height="60" as="geometry" />
        </mxCell>
        <mxCell id="22" value="Quản Lý Đơn Hàng" style="rounded=1;fillColor=#10739E;strokeColor=none;shadow=1;gradientColor=none;fontStyle=1;fontColor=#FFFFFF;fontSize=14;" parent="1" vertex="1">
          <mxGeometry x="-80" y="270" width="200" height="60" as="geometry" />
        </mxCell>
        <mxCell id="24" value="Quản Lý Tài Khoản&#xa;" style="rounded=1;fillColor=#10739E;strokeColor=none;shadow=1;gradientColor=none;fontStyle=1;fontColor=#FF8000;fontSize=14;" parent="1" vertex="1">
          <mxGeometry x="360" y="360" width="200" height="60" as="geometry" />
        </mxCell>
        <mxCell id="26" value="Tạo Cửa Hàng&#xa;" style="rounded=1;fillColor=#10739E;strokeColor=none;shadow=1;gradientColor=none;fontStyle=1;fontColor=#FF8000;fontSize=14;" parent="1" vertex="1">
          <mxGeometry x="360" y="270" width="200" height="60" as="geometry" />
        </mxCell>
        <mxCell id="27" value="Quản Lý Người Dùng&#xa;" style="rounded=1;fillColor=#10739E;strokeColor=none;shadow=1;gradientColor=none;fontStyle=1;fontColor=#FF8000;fontSize=14;" parent="1" vertex="1">
          <mxGeometry x="1140" y="340" width="200" height="60" as="geometry" />
        </mxCell>
        <mxCell id="23" value="Xem Đơn hàng,Sản Phẩm" style="rounded=1;fillColor=#10739E;strokeColor=none;shadow=1;gradientColor=none;fontStyle=1;fontColor=#FF8000;fontSize=14;" parent="1" vertex="1">
          <mxGeometry x="1400" y="340" width="200" height="60" as="geometry" />
        </mxCell>
        <mxCell id="qeOynyPtP3sAQbr9AlGW-101" style="edgeStyle=orthogonalEdgeStyle;rounded=0;orthogonalLoop=1;jettySize=auto;html=1;exitX=0.5;exitY=1;exitDx=0;exitDy=0;entryX=0.451;entryY=0.006;entryDx=0;entryDy=0;entryPerimeter=0;" edge="1" parent="1" source="6" target="23">
          <mxGeometry relative="1" as="geometry" />
        </mxCell>
      </root>
    </mxGraphModel>
  </diagram>
</mxfile>
